<?xml version="1.0" encoding="iso-8859-1"?>
<!-- Generator: Adobe Illustrator 19.0.0, SVG Export Plug-In . SVG Version: 6.00 Build 0)  -->
<svg version="1.1" id="Capa_1" xmlns="http://www.w3.org/2000/svg" xmlns:xlink="http://www.w3.org/1999/xlink" x="0px" y="0px"
	 viewBox="0 0 512.602 512.602" style="enable-background:new 0 0 512.602 512.602;" xml:space="preserve">
<g>
	<g>
		<g>
			<path d="M501.9,356.616l0.28-0.151L283.582,136.702l-0.324-103.41L177.54,4.969l-11.282,11.303l56.257,56.106l-54.79,54.919
				l-56.257-56.149l-11.26,11.174l28.344,105.654l100.563,0.388l-0.669,0.539l220.065,221.144l0.28-0.259
				c14.733,14.323,38.267,14.323,52.719-0.28C516.201,395.012,516.266,371.435,501.9,356.616z M487.663,395.551
				c-6.536,6.558-17.106,6.558-23.555,0c-6.514-6.493-6.558-16.976-0.043-23.512c6.493-6.536,17.084-6.536,23.62-0.043
				C494.134,378.489,494.22,389.037,487.663,395.551z"/>
			<path d="M47.101,232.67c1.79,0.345,43.638,8.693,52.633,55.911c-11.368,12.058-18.465,28.905-18.465,47.607
				c0,0.216,0.043,0.367,0.043,0.475h119.286c0-0.173,0-0.324,0-0.475c0-18.702-7.097-35.549-18.443-47.607
				c8.995-47.197,50.821-55.566,52.59-55.911c3.904-0.755,6.558-4.487,5.846-8.434c-0.712-3.904-4.465-6.536-8.413-5.846
				c-0.496,0.108-48.75,9.426-62.534,59.988c-8.52-5.134-18.314-8.089-28.732-8.089c-10.376,0-20.169,2.977-28.711,8.132
				c-13.827-50.605-62.016-59.88-62.555-59.988c-3.904-0.69-7.636,1.941-8.348,5.846C40.522,228.184,43.175,231.915,47.101,232.67z"
				/>
			<path d="M275.083,290.696c-5.069-1.596-10.462,1.273-12.08,6.363c0,0-11.799,38.051-14.301,46.226
				c-5.112,1.381-20.751,5.803-31.536,8.779c-0.41-1.726-0.712-3.43-1.122-5.112H65.781c-0.367,1.683-0.712,3.387-1.079,5.112
				c-10.785-3.041-26.446-7.399-31.536-8.779c-2.545-8.175-14.323-46.248-14.323-46.248c-1.553-5.069-6.967-7.96-12.036-6.363
				c-5.112,1.532-7.96,6.924-6.363,12.036l17.408,56.257l44.069,12.274c-0.28,4.055-0.539,8.175-0.539,12.382
				c0,5.134,0.324,10.246,0.777,15.229L18.11,418.567L4.348,496.309c-0.906,5.22,2.588,10.268,7.852,11.174
				c5.22,0.928,10.246-2.524,11.152-7.787c0,0,10.462-58.91,11.972-67.711c4.249-1.92,18.184-8.175,30.091-13.417
				c10.419,44.479,40.316,76.663,75.562,76.663c35.225,0,65.165-32.14,75.606-76.663c11.842,5.242,25.799,11.497,30.048,13.417
				c1.488,8.736,11.95,67.711,11.95,67.711c0.928,5.263,5.932,8.715,11.217,7.787c5.263-0.906,8.693-5.889,7.809-11.174
				l-13.784-77.741l-44.004-19.651c0.453-4.983,0.755-10.095,0.755-15.207c0-4.206-0.259-8.348-0.539-12.425l44.048-12.252
				l17.429-56.278C283.021,297.642,280.152,292.249,275.083,290.696z"/>
		</g>
	</g>
	<g>
	</g>
	<g>
	</g>
	<g>
	</g>
	<g>
	</g>
	<g>
	</g>
	<g>
	</g>
	<g>
	</g>
	<g>
	</g>
	<g>
	</g>
	<g>
	</g>
	<g>
	</g>
	<g>
	</g>
	<g>
	</g>
	<g>
	</g>
	<g>
	</g>
</g>
<g>
</g>
<g>
</g>
<g>
</g>
<g>
</g>
<g>
</g>
<g>
</g>
<g>
</g>
<g>
</g>
<g>
</g>
<g>
</g>
<g>
</g>
<g>
</g>
<g>
</g>
<g>
</g>
<g>
</g>
</svg>
