<?xml version="1.0" encoding="UTF-8" standalone="no"?>
<!-- Created with Inkscape (http://www.inkscape.org/) -->

<svg
   xmlns:dc="http://purl.org/dc/elements/1.1/"
   xmlns:cc="http://creativecommons.org/ns#"
   xmlns:rdf="http://www.w3.org/1999/02/22-rdf-syntax-ns#"
   xmlns:svg="http://www.w3.org/2000/svg"
   xmlns="http://www.w3.org/2000/svg"
   xmlns:sodipodi="http://sodipodi.sourceforge.net/DTD/sodipodi-0.dtd"
   xmlns:inkscape="http://www.inkscape.org/namespaces/inkscape"
   sodipodi:docname="Hindi.svg"
   height="134.28000pt"
   width="242.89000pt"
   inkscape:version="0.48.0 r9654"
   sodipodi:version="0.32"
   id="svg2"
   version="1.1">
  <metadata
     id="metadata7">
    <rdf:RDF>
      <cc:Work
         rdf:about="">
        <dc:format>image/svg+xml</dc:format>
        <dc:type
           rdf:resource="http://purl.org/dc/dcmitype/StillImage" />
      </cc:Work>
    </rdf:RDF>
  </metadata>
  <defs
     id="defs5" />
  <sodipodi:namedview
     inkscape:current-layer="svg2"
     inkscape:window-y="32"
     inkscape:window-x="-8"
     inkscape:cy="75.068492"
     inkscape:cx="151.80624"
     inkscape:zoom="3.8865332"
     inkscape:window-height="1018"
     inkscape:window-width="1920"
     inkscape:pageshadow="2"
     inkscape:pageopacity="0.0"
     borderopacity="1.0"
     bordercolor="#666666"
     pagecolor="#ffffff"
     id="base"
     showgrid="false"
     inkscape:window-maximized="1" />
  <g
     style="font-size:6px;font-style:normal;font-variant:normal;font-weight:normal;font-stretch:normal;text-align:start;line-height:125%;letter-spacing:0px;word-spacing:0px;writing-mode:lr-tb;text-anchor:start;fill:#000000;fill-opacity:1;stroke:none;font-family:Adobe Devanagari;-inkscape-font-specification:Adobe Devanagari"
     id="text3016">
    <path
       style="font-size:144px"
       d="m 90.0625,23.84375 c -7.715355,0.194928 -13.568864,2.220317 -17.53125,6.0625 -3.962411,3.842379 -5.952643,8.348234 -5.96875,13.5 0.01171,2.320394 0.402337,4.492267 1.1875,6.53125 0.785148,2.039138 1.894521,3.929761 3.3125,5.6875 l -14,0 -0.5625,0.78125 3.375,6.8125 10,0 -0.21875,63.0625 7.875,2.125 L 78.25,127.625 77.96875,63.21875 c 17.21875,0 34.4375,0 51.65625,0 l 0,8.875 c -4e-5,1.171929 -0.60942,1.765679 -1.875,1.8125 l -8.53125,0 c -9.2344,-0.04682 -15.71877,1.046928 -19.46875,3.25 -3.937508,2.484423 -5.906256,6.156294 -5.90625,11.03125 0.01318,2.676306 0.79638,5.350132 2.3125,8 1.516104,2.649932 3.701649,5.24172 6.5625,7.8125 -2.00392,3.14064 -3.003918,6.50002 -2.96875,10.0625 0.127429,8.14308 3.82079,14.90674 11.09375,20.28125 7.27292,5.3745 17.3608,9.6577 30.25,12.84375 l 0.5,0 5.1875,-8.375 c -11.17534,-1.04151 -20.34135,-3.19972 -27.5,-6.5 -7.15871,-3.3003 -10.85208,-8.25146 -11.09375,-14.8125 0.46726,-5.66161 3.23484,-9.90965 8.28125,-12.75 5.04636,-2.84031 9.57565,-4.24851 13.59375,-4.25 2.85933,0.0308 4.94136,0.50149 6.21875,1.4375 1.2773,0.93606 1.89839,2.15286 1.875,3.625 -0.0865,2.31155 -1.43609,4.45997 -4.0625,6.4375 -2.62651,1.97755 -6.0269,3.81349 -10.15625,5.5625 1.29488,1.60401 2.50582,3.02784 3.625,4.21875 1.1191,1.19093 2.17378,2.25147 3.1875,3.1875 l 0.5,0 c 4.09712,-1.84863 7.34907,-4.00487 9.75,-6.46875 2.40082,-2.46385 3.63325,-5.33886 3.6875,-8.59375 -0.0162,-2.24852 -0.4986,-4.44187 -1.4375,-6.59375 -0.93902,-2.15183 -2.23784,-4.067843 -3.90625,-5.71875 -1.62749,-1.643523 -3.49663,-2.944303 -5.625,-3.9375 -2.12846,-0.993129 -4.66556,-1.504848 -7.59375,-1.53125 -4.06204,0.02787 -7.77493,0.74857 -11.125,2.15625 -3.35012,1.407747 -6.44973,3.327664 -9.28125,5.78125 -2.27345,-1.957005 -3.41408,-4.503875 -3.4375,-7.65625 -0.0117,-1.135218 0.23827,-2.266076 0.71875,-3.375 0.48045,-1.108847 1.2617,-2.134237 2.375,-3.09375 1.51902,-1.305133 3.94676,-2.287553 7.25,-2.96875 3.3032,-0.681107 7.23483,-1.02681 11.8125,-1.03125 2.20602,4.6e-5 4.32711,-0.0039 6.375,0.03125 2.04781,0.0352 4.06733,0.08599 6.0625,0.15625 l 0.84375,-0.96875 -0.125,-17.9375 c 17.25,0 34.5,0 51.75,0 l 0,11.46875 c -4e-5,1.289114 -0.7188,1.945363 -2.125,1.96875 l -9.78125,0 c -7.05325,0.003 -12.73878,1.573291 -17.09375,4.6875 -4.35499,3.114301 -6.59131,7.747109 -6.71875,13.9375 0.13769,6.772 2.78612,12.71535 7.96875,17.84375 5.1826,5.12843 12.04978,7.82569 20.625,8.09375 2.17672,0.0147 4.34469,-0.16894 6.46875,-0.59375 2.12398,-0.4248 4.23726,-1.1787 6.34375,-2.21875 3.32808,3.36329 4.95307,6.55078 4.90625,9.5625 -0.0308,2.16797 -0.75933,4.18359 -2.1875,6 -1.42827,1.8164 -3.356,3.51953 -5.8125,5.125 l 8.375,6.6875 0.5625,0 c 2.49897,-1.66701 4.50287,-3.57716 6,-5.71875 1.49701,-2.14161 2.2431,-4.6377 2.28125,-7.5 0.0351,-2.17822 -0.73053,-4.65674 -2.3125,-7.40625 -1.58209,-2.74951 -4.19147,-5.78661 -7.8125,-9.125 3.96088,-2.64842 5.94525,-5.85154 5.96875,-9.625 -0.0235,-2.88279 -1.08599,-5.41403 -3.21875,-7.59375 -1.92192,-1.992157 -4.26567,-3.007781 -7.03125,-3.03125 -2.50785,0.0806 -4.53519,0.930207 -6.09375,2.53125 -1.55863,1.601102 -2.35941,3.47025 -2.40625,5.625 -4e-5,2.78909 0.89058,5.07033 2.71875,6.875 -1.78276,0.88332 -3.53861,1.56105 -5.3125,2.03125 -1.77396,0.47023 -3.61185,0.71437 -5.5,0.71875 -4.87649,-0.0908 -8.73391,-1.48143 -11.5625,-4.15625 -2.82863,-2.67478 -4.28371,-6.08103 -4.34375,-10.25 -0.0205,-4.627409 1.94042,-8.16842 5.875,-10.625 3.93455,-2.456501 9.98923,-3.696735 18.125,-3.71875 l 10.3125,0 0.71875,-0.71875 -0.0625,-20.875 c 7.61458,0 15.22917,0 22.84375,0 l -0.21875,63.0625 7.875,2.125 0.71875,-0.78125 -0.28125,-64.40625 12.71875,0 0.5625,-0.78125 -3.375,-6.8125 -10.125,0 c -1.40919,-9.36613 -4.84278,-16.901278 -10.3125,-22.59375 -5.46972,-5.692282 -11.69238,-8.594623 -18.65625,-8.75 -4.9365,0.09532 -8.6865,1.394145 -11.25,3.90625 -2.56345,2.512304 -3.86033,5.650973 -3.875,9.4375 0.0205,2.214932 0.51663,4.363367 1.46875,6.4375 0.95217,2.0743 2.23732,4.066485 3.875,6 l 7.46875,3.46875 0.625,-0.78125 c -1.42674,-1.828049 -2.55956,-3.718671 -3.40625,-5.6875 -0.84667,-1.968667 -1.29198,-4.015541 -1.3125,-6.125 0.0132,-2.582431 0.89406,-4.803131 2.65625,-6.65625 1.76222,-1.852932 4.33449,-2.819728 7.6875,-2.90625 4.82813,-0.0043 8.75,2.00156 11.75,6.03125 2.99999,4.029872 4.79687,10.102131 5.40625,18.21875 -48.62665,0 -99.02028,0 -143.3125,0 -0.675309,-0.837818 -1.177262,-1.865161 -1.5625,-3.125 -0.385269,-1.25969 -0.586441,-2.779219 -0.59375,-4.53125 0.03807,-4.485268 1.811507,-8.250889 5.3125,-11.3125 3.500953,-3.061429 8.493136,-4.655178 15,-4.78125 6.87887,0.07187 13.44136,1.968356 19.6875,5.6875 6.24604,3.719325 12.24603,8.80721 18,15.3125 l 0.5625,0 2.53125,-3.5 C 128.4555,41.082606 121.0434,34.752534 113.46875,30.40625 105.894,26.06016 98.102989,23.874616 90.0625,23.84375 z"
       id="path2984"
       inkscape:connector-curvature="0"
       sodipodi:nodetypes="ccccccccccccccccccccccscccscscccccccccccccccccscccccccccccscscscccccccccccccsccscccscccccccccccccccccscccccccccccccccccccc" />
  </g>
  <path
     inkscape:connector-curvature="0"
     d="m 144.30942,24.519208 -7.66406,7.734375 7.66406,7.734375 7.73438,-7.734375 z"
     style="font-size:144px;font-style:normal;font-variant:normal;font-weight:normal;font-stretch:normal;text-align:start;line-height:125%;letter-spacing:0px;word-spacing:0px;writing-mode:lr-tb;text-anchor:start;fill:#000000;fill-opacity:1;stroke:none;font-family:Adobe Devanagari;-inkscape-font-specification:Adobe Devanagari"
     id="path2988" />
</svg>
