<?xml version="1.0" encoding="iso-8859-1"?>
<!-- Generator: Adobe Illustrator 19.0.0, SVG Export Plug-In . SVG Version: 6.00 Build 0)  -->
<svg version="1.1" id="Layer_1" xmlns="http://www.w3.org/2000/svg" xmlns:xlink="http://www.w3.org/1999/xlink" x="0px" y="0px"
	 viewBox="0 0 463.502 463.502" style="enable-background:new 0 0 463.502 463.502;" xml:space="preserve">
<g>
	<g>
		<g>
			<path d="M186.719,160.706c-0.714-22.717-19.474-41.015-42.333-41.015c-15.007,0-67.222,0-82.591,0
				c-22.859,0-41.619,18.297-42.333,41.015L4.241,291.336c-1.236,10.609,7.044,19.97,17.8,19.97c8.958,0,16.693-6.713,17.755-15.828
				c4.829-41.447,15.7-135.241,15.7-135.241l0.008,281.786c0,11.861,9.616,21.477,21.477,21.477
				c11.861,0,21.477-9.616,21.477-21.477V291.207h9.272v150.818c0,11.861,9.616,21.477,21.477,21.477s21.477-9.616,21.477-21.477
				c0-291.133-0.39-113.649-0.39-282.803c0.481,1-0.844-9.081,16.09,136.258c1.142,9.802,10.009,16.848,19.849,15.706
				c9.818-1.144,16.85-10.031,15.706-19.849L186.719,160.706z"/>
			<path d="M62.643,53.917c0,0.001,0,0.002-0.001,0.003c41.161,0.021,110.876,0.326,110.876,0.326c5.397,0,9.773-4.375,9.773-9.773
				c0-5.397-4.376-9.773-9.773-9.773h-28.464c-6.062-13.87-18.368-24.65-33.212-27.707C112.627,3.207,108.435,0,103.268,0
				c-5.146,0-9.354,3.191-8.577,6.986c-19.939,4.105-35.313,22.151-37.104,42.887c-0.09,1.04,0.261,2.07,0.967,2.839
				C59.817,54.088,61.231,53.917,62.643,53.917z"/>
			<path d="M103.268,102.588c18.213,0,34.179-11.952,39.468-29.121H63.8C69.047,90.499,84.91,102.588,103.268,102.588z"/>
			<path d="M264.657,128.388h-12.814c-1.002,2.001-9.272,7.469-12.735,7.469v11.635c4.241-0.001,10.924-3.17,12.734-5.582v20.047
				h-11.163v11.32h33.962v-11.32h-9.984V128.388z"/>
			<polygon points="297.202,132.162 285.882,132.162 285.882,140.337 278.492,140.337 278.492,150.4 285.882,150.4 285.882,158.576 
				297.202,158.576 297.202,150.4 304.671,150.4 304.671,140.337 297.202,140.337 			"/>
			<path d="M335.959,128.388h-12.815c-1.032,2.062-9.347,7.469-12.735,7.469v11.635c4.196-0.001,10.902-3.138,12.735-5.582v20.047
				h-11.163v11.32h33.962v-11.32h-9.984V128.388z"/>
			<rect x="352.468" y="155.51" width="24.921" height="8.019"/>
			<rect x="352.468" y="139.63" width="24.921" height="8.019"/>
			<path d="M444.385,38.918H208.896c-8.284,0-15,6.716-15,15v70.275c7.72,10.051,12.187,22.163,12.777,34.959l12.182,104.551h93.647
				v23.809l-78.106,78.105c-5.521,5.522-5.521,14.474,0,19.996c5.521,5.521,14.475,5.521,19.996,0l58.109-58.11v22.866
				c0,7.809,6.33,14.139,14.139,14.139c7.809,0,14.139-6.331,14.139-14.139v-22.866l58.109,58.11c5.521,5.521,14.474,5.522,19.996,0
				c5.522-5.522,5.522-14.474,0-19.996l-78.105-78.105v-23.809h103.605c8.284,0,15-6.716,15-15V53.918
				C459.385,45.633,452.669,38.918,444.385,38.918z M223.896,233.703V68.918h205.488v164.785H223.896z"/>
			<polygon points="390.617,155.733 390.617,155.731 390.617,155.731 			"/>
			<path d="M413.926,123.185c-1.65-1.257-3.498-2.174-5.542-2.751c-2.044-0.576-4.063-0.865-6.054-0.865
				c-3.774,0-7.128,0.892-10.063,2.673c-2.935,1.782-5.084,4.272-6.446,7.468l9.513,6.761c0.314-0.366,0.64-0.826,0.982-1.376
				c0.34-0.55,0.759-1.087,1.258-1.611c0.498-0.524,1.087-0.969,1.769-1.337c0.681-0.365,1.495-0.55,2.438-0.55
				c1.258,0,2.359,0.354,3.302,1.062c0.943,0.708,1.415,1.665,1.415,2.87c0,1.1-0.394,2.11-1.18,3.026
				c-0.786,0.918-1.717,1.744-2.79,2.477c-1.076,0.735-2.151,1.364-3.224,1.887c-1.076,0.525-1.901,0.944-2.477,1.258
				c-1.415,0.734-2.542,1.546-3.38,2.437c-0.839,0.892-1.468,1.822-1.887,2.791c-0.421,0.97-0.682,1.992-0.786,3.066
				c-0.106,1.073-0.157,2.16-0.157,3.26h12.185c0-0.837,0.327-1.572,0.983-2.201c0.655-0.629,1.494-1.23,2.516-1.808
				c1.022-0.576,2.135-1.152,3.341-1.729c1.205-0.576,2.384-1.258,3.538-2.044c2.358-1.572,3.995-3.393,4.913-5.464
				c0.916-2.069,1.376-4.362,1.376-6.878c0-2.935-0.512-5.425-1.533-7.469C416.913,126.094,415.577,124.443,413.926,123.185z"/>
			<rect x="390.852" y="163.201" width="12.186" height="12.893"/>
		</g>
	</g>
</g>
<g>
</g>
<g>
</g>
<g>
</g>
<g>
</g>
<g>
</g>
<g>
</g>
<g>
</g>
<g>
</g>
<g>
</g>
<g>
</g>
<g>
</g>
<g>
</g>
<g>
</g>
<g>
</g>
<g>
</g>
</svg>
