<?xml version="1.0" encoding="iso-8859-1"?>
<!-- Generator: Adobe Illustrator 19.0.0, SVG Export Plug-In . SVG Version: 6.00 Build 0)  -->
<svg version="1.1" id="Layer_1" xmlns="http://www.w3.org/2000/svg" xmlns:xlink="http://www.w3.org/1999/xlink" x="0px" y="0px"
	 viewBox="0 0 511.834 511.834" style="enable-background:new 0 0 511.834 511.834;" xml:space="preserve">
<g>
	<g>
		<g>
			<path d="M230.235,170.584h8.533c4.71,0,8.533-3.823,8.533-8.533c0-4.71-3.823-8.533-8.533-8.533h-8.533
				c-4.71,0-8.533,3.823-8.533,8.533C221.702,166.761,225.525,170.584,230.235,170.584z"/>
			<path d="M102.235,102.317h8.533c4.71,0,8.533-3.823,8.533-8.533s-3.823-8.533-8.533-8.533h-8.533
				c-4.71,0-8.533,3.823-8.533,8.533S97.525,102.317,102.235,102.317z"/>
			<path d="M187.901,185.543c1.63,16.401,8.755,30.839,9.097,31.522c7.74,15.471,19.43,38.852,58.837,38.852
				s51.098-23.381,58.829-38.852c0.35-0.683,7.475-15.121,9.105-31.522c5.282-2.901,8.866-8.525,8.866-14.959v-17.067
				c0-6.306-3.439-11.819-8.533-14.771v-2.295c0-28.237-22.963-51.2-51.2-51.2h-34.133c-28.237,0-51.2,22.963-51.2,51.2v2.295
				c-5.094,2.953-8.533,8.465-8.533,14.771v17.067C179.035,177.018,182.619,182.641,187.901,185.543z M196.102,153.517
				c4.71,0,8.533-3.823,8.533-8.533v-8.533c0-18.825,15.309-34.133,34.133-34.133h34.133c18.825,0,34.133,15.309,34.133,34.133
				v8.533c0,4.71,3.823,8.533,8.533,8.533v17.067c-4.71,0-8.533,3.823-8.533,8.533c0,14.763-7.561,30.174-7.637,30.319
				c-8.883,17.766-16.717,29.414-43.563,29.414c-26.846,0-34.688-11.648-43.563-29.406c-0.077-0.154-7.637-15.565-7.637-30.327
				c0-4.71-3.823-8.533-8.533-8.533V153.517z"/>
			<path d="M119.421,211.953l-7.091,42.513c-0.777,4.651,2.355,9.045,7.006,9.822c0.478,0.077,0.947,0.111,1.417,0.111
				c4.096,0,7.714-2.953,8.405-7.125l5.897-35.302c12.314,0.282,23.697,1.348,33.946,3.191c4.659,0.845,9.071-2.261,9.907-6.895
				c0.836-4.642-2.253-9.079-6.886-9.907c-13.082-2.347-27.776-3.533-43.682-3.533C124.038,204.871,120.129,207.678,119.421,211.953
				z"/>
			<path d="M392.368,102.317h8.533c4.71,0,8.533-3.823,8.533-8.533s-3.823-8.533-8.533-8.533h-8.533
				c-4.71,0-8.533,3.823-8.533,8.533S387.658,102.317,392.368,102.317z"/>
			<path d="M272.902,170.584h8.533c4.71,0,8.533-3.823,8.533-8.533c0-4.71-3.823-8.533-8.533-8.533h-8.533
				c-4.71,0-8.533,3.823-8.533,8.533C264.368,166.761,268.191,170.584,272.902,170.584z"/>
			<path d="M435.035,102.317h8.533c4.71,0,8.533-3.823,8.533-8.533s-3.823-8.533-8.533-8.533h-8.533
				c-4.71,0-8.533,3.823-8.533,8.533S430.325,102.317,435.035,102.317z"/>
			<path d="M350.034,117.276c1.63,16.401,8.755,30.839,9.096,31.522c7.74,15.471,19.43,38.852,58.837,38.852
				c39.407,0,51.098-23.381,58.837-38.852c0.341-0.683,7.467-15.121,9.097-31.522c5.282-2.901,8.866-8.525,8.866-14.959V85.25
				c0-6.306-3.439-11.819-8.533-14.771v-2.295c0-28.237-22.963-51.2-51.2-51.2h-34.133c-28.237,0-51.2,22.963-51.2,51.2v2.295
				c-5.094,2.953-8.533,8.465-8.533,14.771v17.067C341.168,108.751,344.752,114.374,350.034,117.276z M358.235,85.25
				c4.71,0,8.533-3.823,8.533-8.533v-8.533c0-18.825,15.309-34.133,34.133-34.133h34.133c18.825,0,34.133,15.309,34.133,34.133
				v8.533c0,4.71,3.823,8.533,8.533,8.533v17.067c-4.71,0-8.533,3.823-8.533,8.533c0,14.763-7.56,30.174-7.637,30.319
				c-8.883,17.766-16.717,29.414-43.563,29.414c-26.854,0-34.688-11.648-43.563-29.406c-0.077-0.154-7.637-15.565-7.637-30.327
				c0-4.71-3.823-8.533-8.533-8.533V85.25z"/>
			<path d="M332.609,218.259c0.828,4.634,5.214,7.714,9.907,6.903c10.266-1.843,21.692-2.91,34.039-3.191l5.897,35.302
				c0.691,4.173,4.309,7.125,8.405,7.125c0.469,0,0.939-0.034,1.417-0.111c4.651-0.777,7.782-5.18,7.006-9.822l-7.091-42.513
				c-0.725-4.275-4.42-7.091-8.926-7.125c-15.94,0-30.66,1.186-43.759,3.533C334.871,209.188,331.782,213.626,332.609,218.259z"/>
			<path d="M50.915,211.962c-0.708-4.292-4.668-7.1-8.951-7.134c-12.279,0-23.902,0.717-34.543,2.116
				c-4.676,0.614-7.962,4.907-7.347,9.574c0.623,4.676,4.924,7.945,9.574,7.347c7.979-1.05,16.563-1.69,25.634-1.894l24.405,146.287
				c0.691,4.173,4.309,7.125,8.405,7.125c0.461,0,0.939-0.034,1.417-0.119c4.642-0.768,7.782-5.171,7.006-9.822L50.915,211.962z"/>
			<path d="M299.056,273.095c-4.378,0.009-8.405,2.97-9.011,7.373l-25.6,187.631c-0.631,4.668,2.628,8.969,7.305,9.609
				c0.393,0.051,0.776,0.077,1.161,0.077c4.207,0,7.859-3.098,8.448-7.381l24.585-180.164c36.369,0.888,64.444,8.772,77.679,21.973
				c5.888,5.88,8.747,12.587,8.747,20.506V469.25c0,4.71,3.823,8.533,8.533,8.533c4.71,0,8.533-3.823,8.533-8.533V332.717
				c0-12.501-4.634-23.467-13.764-32.58C378.194,282.686,343.899,273.095,299.056,273.095z"/>
			<path d="M272.902,290.05c0-9.412-7.654-17.067-17.067-17.067c-9.412,0-17.067,7.654-17.067,17.067
				c0,6.289,3.456,11.733,8.533,14.694v62.106c0,4.71,3.823,8.533,8.533,8.533s8.533-3.823,8.533-8.533v-62.106
				C269.446,301.784,272.902,296.339,272.902,290.05z"/>
			<path d="M349.702,375.384c-4.71,0-8.533,3.823-8.533,8.533v102.4c0,4.71,3.823,8.533,8.533,8.533c4.71,0,8.533-3.823,8.533-8.533
				v-102.4C358.235,379.207,354.412,375.384,349.702,375.384z"/>
			<path d="M443.602,221.784c0-9.412-7.663-17.067-17.084-17.067c-9.421,0-17.084,7.654-17.084,17.067
				c0,6.289,3.456,11.725,8.533,14.686v62.114c0,4.71,3.823,8.533,8.533,8.533c4.71,0,8.533-3.823,8.533-8.533v-62.089
				C440.129,233.534,443.602,228.081,443.602,221.784z"/>
			<path d="M504.419,206.944c-10.658-1.399-22.298-2.116-34.611-2.116c-4.412,0-8.243,2.842-8.96,7.125l-25.643,153.489
				c-0.777,4.651,2.355,9.054,7.006,9.822c0.478,0.085,0.947,0.119,1.417,0.119c4.096,0,7.714-2.953,8.405-7.125l24.448-146.287
				c9.096,0.205,17.715,0.845,25.702,1.894c4.634,0.597,8.96-2.671,9.574-7.347C512.381,211.842,509.087,207.559,504.419,206.944z"
				/>
			<path d="M59.568,102.317h8.533c4.71,0,8.533-3.823,8.533-8.533s-3.823-8.533-8.533-8.533h-8.533c-4.71,0-8.533,3.823-8.533,8.533
				S54.858,102.317,59.568,102.317z"/>
			<path d="M85.168,204.717c-9.412,0-17.067,7.654-17.067,17.067c0,6.289,3.456,11.733,8.533,14.694v62.106
				c0,4.71,3.823,8.533,8.533,8.533s8.533-3.823,8.533-8.533v-62.106c5.077-2.961,8.533-8.405,8.533-14.694
				C102.235,212.371,94.581,204.717,85.168,204.717z"/>
			<path d="M17.234,117.276c1.621,16.401,8.755,30.839,9.096,31.522c7.74,15.471,19.43,38.852,58.837,38.852
				s51.098-23.381,58.829-38.852c0.35-0.683,7.475-15.121,9.105-31.522c5.282-2.901,8.866-8.525,8.866-14.959V85.25
				c0-6.306-3.439-11.819-8.533-14.771v-2.295c0-28.237-22.963-51.2-51.2-51.2H68.102c-28.237,0-51.2,22.963-51.2,51.2v2.295
				c-5.094,2.953-8.533,8.465-8.533,14.771v17.067C8.368,108.751,11.952,114.374,17.234,117.276z M25.435,85.25
				c4.71,0,8.533-3.823,8.533-8.533v-8.533c0-18.825,15.309-34.133,34.133-34.133h34.133c18.825,0,34.133,15.309,34.133,34.133
				v8.533c0,4.71,3.823,8.533,8.533,8.533v17.067c-4.71,0-8.533,3.823-8.533,8.533c0,14.763-7.561,30.174-7.637,30.319
				c-8.883,17.766-16.717,29.414-43.563,29.414c-26.854,0-34.679-11.648-43.563-29.406c-0.077-0.154-7.637-15.565-7.637-30.327
				c0-4.71-3.823-8.533-8.533-8.533V85.25z"/>
			<path d="M161.968,375.384c-4.71,0-8.533,3.823-8.533,8.533v102.4c0,4.71,3.823,8.533,8.533,8.533c4.71,0,8.533-3.823,8.533-8.533
				v-102.4C170.502,379.207,166.679,375.384,161.968,375.384z"/>
			<path d="M221.625,280.476c-0.58-4.224-4.181-7.373-8.439-7.381c-44.834,0.06-79.633,9.515-97.186,27.042
				c-9.139,9.114-13.764,20.079-13.764,32.58V469.25c0,4.71,3.823,8.533,8.533,8.533c4.71,0,8.533-3.823,8.533-8.533V332.717
				c0-7.919,2.859-14.626,8.755-20.506c13.227-13.201,41.301-21.086,77.67-21.965l24.585,180.156
				c0.589,4.284,4.241,7.381,8.439,7.381c0.393,0,0.777-0.026,1.169-0.077c4.676-0.64,7.936-4.941,7.305-9.609L221.625,280.476z"/>
		</g>
	</g>
</g>
<g>
</g>
<g>
</g>
<g>
</g>
<g>
</g>
<g>
</g>
<g>
</g>
<g>
</g>
<g>
</g>
<g>
</g>
<g>
</g>
<g>
</g>
<g>
</g>
<g>
</g>
<g>
</g>
<g>
</g>
</svg>
