<?xml version="1.0" encoding="iso-8859-1"?>
<!-- Generator: Adobe Illustrator 18.0.0, SVG Export Plug-In . SVG Version: 6.00 Build 0)  -->
<!DOCTYPE svg PUBLIC "-//W3C//DTD SVG 1.1//EN" "http://www.w3.org/Graphics/SVG/1.1/DTD/svg11.dtd">
<svg version="1.1" id="Capa_1" xmlns="http://www.w3.org/2000/svg" xmlns:xlink="http://www.w3.org/1999/xlink" x="0px" y="0px"
	 viewBox="0 0 347.873 347.873" style="enable-background:new 0 0 347.873 347.873;" xml:space="preserve">
<g>
	<path d="M221.218,97.832h-94.563c-18.041,0-32.719,14.678-32.719,32.72v33.436c0,18.042,14.678,32.72,32.719,32.72
		c18.04,0,32.717-14.678,32.717-32.72V152.27h29.129v11.718c0,18.042,14.677,32.72,32.717,32.72
		c18.041,0,32.719-14.678,32.719-32.72v-33.436C253.936,112.511,239.259,97.832,221.218,97.832z M137.987,139.478h-5.664v5.667
		c0,2.761-2.238,5-5,5c-2.762,0-5-2.239-5-5v-5.667h-5.668c-2.762,0-5-2.239-5-5s2.238-5,5-5h5.668v-5.665c0-2.761,2.238-5,5-5
		c2.762,0,5,2.239,5,5v5.665h5.664c2.762,0,5,2.239,5,5S140.749,139.478,137.987,139.478z M165.893,132.909h-7.625
		c-2.762,0-5-2.239-5-5c0-2.761,2.238-5,5-5h7.625c2.762,0,5,2.239,5,5C170.893,130.67,168.655,132.909,165.893,132.909z
		 M187.895,132.909h-7.627c-2.762,0-5-2.239-5-5c0-2.761,2.238-5,5-5h7.627c2.762,0,5,2.239,5,5
		C192.895,130.67,190.657,132.909,187.895,132.909z M204.372,127.909c0-3.611,2.93-6.541,6.543-6.541
		c3.611,0,6.541,2.93,6.541,6.541c0,3.615-2.93,6.544-6.541,6.544C207.302,134.453,204.372,131.523,204.372,127.909z
		 M216.591,153.023c-3.615,0-6.543-2.93-6.543-6.543c0-3.615,2.928-6.544,6.543-6.544c3.611,0,6.541,2.929,6.541,6.544
		C223.132,150.093,220.202,153.023,216.591,153.023z M229.673,138.763c-3.611,0-6.541-2.93-6.541-6.541
		c0-3.615,2.93-6.543,6.541-6.543c3.615,0,6.545,2.928,6.545,6.543C236.218,135.833,233.288,138.763,229.673,138.763z"/>
	<path d="M337.873,33.937H10c-5.523,0-10,4.477-10,10v210.393c0,5.523,4.477,10,10,10h114.979
		c-4.407,21.476-14.601,32.572-14.674,32.651c-2.793,2.885-3.59,7.16-2.023,10.857c1.566,3.697,5.191,6.099,9.207,6.099h112.895
		c4.016,0,7.641-2.402,9.207-6.099c1.566-3.697,0.77-7.973-2.023-10.857c-0.117-0.122-10.279-11.174-14.676-32.651h114.981
		c5.523,0,10-4.477,10-10V43.937C347.873,38.414,343.396,33.937,337.873,33.937z M327.873,244.329h-16.311v-2.816
		c0-5.523-4.477-10-10-10s-10,4.477-10,10v2.816h-10.439v-2.816c0-5.523-4.477-10-10-10c-5.522,0-10,4.477-10,10v2.816h-49.782
		h-74.809H20V53.937h307.873V244.329z"/>
</g>
<g>
</g>
<g>
</g>
<g>
</g>
<g>
</g>
<g>
</g>
<g>
</g>
<g>
</g>
<g>
</g>
<g>
</g>
<g>
</g>
<g>
</g>
<g>
</g>
<g>
</g>
<g>
</g>
<g>
</g>
</svg>
