<?xml version="1.0" encoding="iso-8859-1"?>
<!-- Generator: Adobe Illustrator 19.0.0, SVG Export Plug-In . SVG Version: 6.00 Build 0)  -->
<svg version="1.1" id="Layer_1" xmlns="http://www.w3.org/2000/svg" xmlns:xlink="http://www.w3.org/1999/xlink" x="0px" y="0px"
	 viewBox="0 0 490 490" style="enable-background:new 0 0 490 490;" xml:space="preserve">
<g>
	<g>
		<g>
			<path d="M470,354.933v-80c0-11.028-8.972-20-20-20H330.92c14.796-13.709,24.08-33.286,24.08-55v-50c0-41.355-33.645-75-75-75
				c-8.647,0-17.165,1.504-25.227,4.401c0.7-18.866,4.879-42.538,16.871-44.537l-3.287-19.729
				c-27.671,4.612-33.015,41.497-33.655,64.073c-7.906-2.774-16.244-4.209-24.701-4.209c-41.355,0-75,33.645-75,75v50
				c0,21.714,9.284,41.291,24.08,55H20c-11.028,0-20,8.972-20,20v80c0,11.028,8.972,20,20,20v80c0,11.028,8.972,20,20,20h430
				c11.028,0,20-8.972,20-20v-80C490,363.905,481.028,354.933,470,354.933z M155,199.933v-50c0-30.327,24.673-55,55-55
				c10.48,0,20.717,3.01,29.606,8.704c3.287,2.105,7.5,2.105,10.787,0c8.89-5.694,19.127-8.704,29.606-8.704
				c30.327,0,55,24.673,55,55v50c0,30.327-24.673,55-55,55c-10.479,0-20.717-3.01-29.606-8.704
				c-1.644-1.053-3.519-1.579-5.394-1.579s-3.75,0.526-5.394,1.579c-8.89,5.694-19.127,8.704-29.606,8.704
				C179.673,254.933,155,230.26,155,199.933z M20,354.933v-80h430l0.016,79.999c0,0-0.005,0.001-0.016,0.001H40H20z M470,454.933H40
				v-80h410h20l0.016,79.999C470.016,454.932,470.011,454.933,470,454.933z"/>
			<rect x="345" y="289.933" width="80" height="20"/>
			<rect x="245" y="319.933" width="180" height="20"/>
			<rect x="45" y="299.933" width="20" height="30"/>
			<rect x="60" y="389.933" width="120" height="20"/>
			<rect x="60" y="419.933" width="220" height="20"/>
			<rect x="200" y="389.933" width="30" height="20"/>
			<rect x="250" y="389.933" width="30" height="20"/>
			<rect x="430" y="389.933" width="20" height="50"/>
			<path d="M220,129.933v-20c-24.814,0-45,20.187-45,45h20C195,141.148,206.215,129.933,220,129.933z"/>
		</g>
	</g>
</g>
<g>
</g>
<g>
</g>
<g>
</g>
<g>
</g>
<g>
</g>
<g>
</g>
<g>
</g>
<g>
</g>
<g>
</g>
<g>
</g>
<g>
</g>
<g>
</g>
<g>
</g>
<g>
</g>
<g>
</g>
</svg>
