<?xml version="1.0" encoding="iso-8859-1"?>
<!-- Generator: Adobe Illustrator 18.0.0, SVG Export Plug-In . SVG Version: 6.00 Build 0)  -->
<!DOCTYPE svg PUBLIC "-//W3C//DTD SVG 1.1//EN" "http://www.w3.org/Graphics/SVG/1.1/DTD/svg11.dtd">
<svg version="1.1" id="Capa_1" xmlns="http://www.w3.org/2000/svg" xmlns:xlink="http://www.w3.org/1999/xlink" x="0px" y="0px"
	 viewBox="0 0 492.819 492.819" style="enable-background:new 0 0 492.819 492.819;" xml:space="preserve">
<g id="XMLID_153_">
	<path id="XMLID_159_" d="M491.469,134.759c-2.593-9.279-8.654-16.993-17.087-21.734L305.245,18.05
		c-16.865-9.471-39.811-2.927-49.171,13.794l-12.825,22.804l32.409,9.739l9.208-16.39c0.564-0.999,1.434-1.362,2.541-1.362
		c0.503,0,1.048,0.072,1.664,0.203l169.136,94.975c0.727,0.411,1.245,1.063,1.467,1.861c0.23,0.799,0.111,1.637-0.289,2.361
		L352.787,335.817l-23.745,79.047c11.349-1.37,21.581-7.763,27.24-17.856l131.896-234.809
		C492.902,153.791,494.06,144.044,491.469,134.759z"/>
	<path id="XMLID_158_" d="M377.208,131.824c-4.478-8.384-12.296-14.759-21.42-17.509l-185.78-55.814
		c-18.623-5.642-39.435,5.684-44.994,24.192l-9.062,30.147h34.488l6.207-20.651c0.419-1.388,1.629-2.089,3.37-2.089
		c0.161,0,0.321,0.009,0.484,0.018l78.687,23.641c5.885,0.896,11.461,2.556,16.671,5.008l90.413,27.164
		c0.794,0.243,1.451,0.773,1.853,1.507c0.375,0.718,0.468,1.573,0.229,2.355l-57.385,190.91v93.677
		c5.306-4.435,9.431-10.294,11.495-17.18l77.506-257.896C382.725,150.196,381.709,140.167,377.208,131.824z"/>
	<path id="XMLID_155_" d="M230.095,137.605H36.118C16.201,137.605,0,153.807,0,173.718v269.303
		c0,19.911,16.201,36.113,36.118,36.113h193.977c19.917,0,36.116-16.202,36.116-36.113V173.718
		C266.211,153.807,250.012,137.605,230.095,137.605z M233.188,443.021c0,1.71-1.382,3.095-3.094,3.095H36.118
		c-1.714,0-3.096-1.386-3.096-3.095V173.718c0-1.709,1.382-3.095,3.096-3.095h193.977c1.712,0,3.094,1.385,3.094,3.095V443.021z"/>
	<path id="XMLID_154_" d="M171.294,277.173c-0.33,0-0.64,0.09-0.979,0.098c2.175-4.645,3.495-9.786,3.495-15.26
		c0-19.903-16.132-36.041-36.041-36.041c-19.898,0-36.04,16.138-36.04,36.041c0,5.474,1.322,10.615,3.504,15.26
		c-0.342-0.008-0.664-0.098-0.997-0.098c-19.9,0-36.04,16.139-36.04,36.041c0,19.903,16.14,36.041,36.04,36.041
		c5.466,0,10.59-1.305,15.229-3.481l-4.896,38.096c-0.264,2.008,0.35,4.023,1.689,5.539c1.338,1.515,3.257,2.385,5.286,2.385h32.458
		c2.031,0,3.951-0.87,5.288-2.385c1.339-1.516,1.952-3.531,1.688-5.539l-4.887-38.089c4.631,2.17,9.756,3.475,15.202,3.475
		c19.918,0,36.049-16.138,36.049-36.041C207.343,293.312,191.212,277.173,171.294,277.173z"/>
</g>
<g>
</g>
<g>
</g>
<g>
</g>
<g>
</g>
<g>
</g>
<g>
</g>
<g>
</g>
<g>
</g>
<g>
</g>
<g>
</g>
<g>
</g>
<g>
</g>
<g>
</g>
<g>
</g>
<g>
</g>
</svg>
