<?xml version='1.0' encoding='utf-8'?>
<!DOCTYPE svg PUBLIC '-//W3C//DTD SVG 1.1//EN' 'http://www.w3.org/Graphics/SVG/1.1/DTD/svg11.dtd'>
<svg version="1.1" xmlns="http://www.w3.org/2000/svg" viewBox="0 0 512 512" xmlns:xlink="http://www.w3.org/1999/xlink" enable-background="new 0 0 512 512">
  <g>
    <path d="m489.5,12.1h-467c-6.2,0-10.4,4.2-10.4,10.4v467c0,6.2 4.2,10.4 10.4,10.4h233.5c6.2,0 10.4-4.2 10.4-9.3v-91.3c0-6.2-4.2-10.4-10.4-10.4h-19.7c-4.2,0-7.3,2.1-9.3,5.2-7.3,13.5-20.8,20.8-35.3,20.8-22.8,0-41.5-18.7-41.5-41.5s18.7-41.5 41.5-41.5c14.5,0 28,7.3 35.3,20.8 2.1,3.1 5.2,5.2 9.3,5.2h19.7c6.2,0 10.4-4.2 10.4-10.4v-81h70.6v5.2c-16.7,11.3-26,30-26,49.7 0,34.2 28,62.3 62.3,62.3s62.3-28 61.2-63.3c0-19.7-9.3-38.4-25.9-49.8v-4.2h81c6.2,0 10.4-4.2 10.4-10.4v-233.5c-0.1-6.2-4.3-10.4-10.5-10.4zm-243.9,20.8v79.9c0,6.2 4.2,10.4 10.4,10.4h19.7c4.2,0 7.3-2.1 9.3-5.2 7.3-13.5 20.8-20.8 35.3-20.8 22.8,0 41.5,18.7 41.5,41.5 0,22.8-18.7,41.5-41.5,41.5-14.5,0-28-7.3-35.3-20.8-2.1-3.1-5.2-5.2-9.3-5.2h-19.7c-6.2,0-10.4,4.2-10.4,10.4v81h-69.5v-4.2c16.6-11.4 25.9-30.1 25.9-49.8 0-34.2-28-62.3-62.3-62.3s-62.3,28-62.3,62.3c0,19.7 9.3,38.4 25.9,49.8v4.2h-70.4v-212.7h212.7zm0,303h-4.2c-11.4-16.6-30.1-25.9-49.8-25.9-34.2,0-62.3,28-62.3,62.3 0,34.2 28,62.3 62.3,62.3 19.7,0 38.4-9.3 49.8-25.9h4.2v70.6h-212.7v-212.9h79.9c6.2,0 10.4-4.2 10.4-10.4v-19.7c0-4.2-2.1-7.3-5.2-9.3-13.5-7.3-20.8-20.8-20.8-35.3 0-22.8 18.7-41.5 41.5-41.5s41.5,18.7 41.5,41.5c0,14.5-7.3,28-20.8,35.3-3.1,2.1-5.2,5.2-5.2,9.3v19.7c0,6.2 4.2,10.4 10.4,10.4h81v69.5zm234.6-90.3h-81c-6.2,0-10.4,4.2-10.4,10.4v19.7c0,4.2 2.1,7.3 5.2,9.3 13.5,7.3 20.8,20.8 20.8,35.3 0,22.8-18.7,41.5-41.5,41.5-22.8,0-41.5-18.7-41.5-41.5 0-14.5 7.3-28 20.8-35.3 3.1-2.1 5.2-5.2 5.2-9.3v-19.7c0-6.2-4.2-10.4-10.4-10.4h-81v-69.5h4.2c11.4,16.6 30.1,25.9 49.8,25.9 34.2,0 62.3-28 62.3-62.3 0-34.2-28-62.3-62.3-62.3-19.7,0-38.4,9.3-49.8,25.9h-4.2v-70.4h213.8v212.7z"/>
  </g>
</svg>
